<svg  xmlns:xlink="http://www.w3.org/1999/xlink" xmlns="http://www.w3.org/2000/svg" id="scadaSVG" overflow="visible" width="400" height="400"><g title="Horizontal Pump" parentid="" nativewidth="154" nativeheight="106" myscale="0.8" transform="matrix(0.8 0 0 0.8 119.9 122.9)" id="process1520095267655" filter="url(#drop-shadow)">
    <defs>


        <linearGradient x1="0%" y2="0%" x2="100%" y1="0%" id="zg1_219">


            <stop stop-color="#9aa1aa" offset="0">
</stop>


            <stop stop-color="#aeb5c0" offset="0.22">
</stop>


            <stop stop-color="#dce0e5" offset="0.57">
</stop>


            <stop stop-color="#cacfd7" offset="0.84">
</stop>


            <stop stop-color="#a7afb9" offset="1">
</stop>


        </linearGradient>


        <linearGradient x1="0%" y2="0%" x2="100%" y1="0%" id="zg2_219">


            <stop stop-color="#8f969d" offset="0">
</stop>


            <stop stop-color="#d3d8de" offset="0.64">
</stop>


            <stop stop-color="#9aa0a8" offset="1">
</stop>


        </linearGradient>


        <linearGradient x1="0%" y2="0%" x2="100%" y1="0%" id="zg3_219">


            <stop stop-color="#626974" offset="0">
</stop>


            <stop stop-color="#ccd0d5" offset="0.66">
</stop>


            <stop stop-color="#5e6670" offset="1">
</stop>


        </linearGradient>


        <radialGradient fy="51" r="72.6" id="qg1" cy="51" cx="51" gradientUnits="userSpaceOnUse" fx="51">


            <stop stop-color="#c7cbd1" offset="0">
</stop>


            <stop stop-color="#c4c7cd" offset="0.91">
</stop>


            <stop stop-color="#d4d8dd" offset="0.74">
</stop>


            <stop stop-color="#b6bcc4" offset="0.54">
</stop>


        </radialGradient>


    </defs>


    <g transform="translate(1.01,1)">


        <g transform="matrix(-1,0,0,1,74.4,31.2)">


            <path transform="matrix(0,-1,-1,0,68.3,40.6)" id="shape1" fill="url(#zg1_219)" d="M0,0L39.1,0L39.1,68.3L0,68.3L0,0z">
</path>


            <path transform="matrix(0,-1,-1,0,74.4,42.9)" id="shape2" fill="url(#zg2_219)" d="M1.4,-0L41.5,-0C42.2,-0,42.9,1.3,42.9,3C42.9,4.7,42.2,6.1,41.5,6.1L1.4,6.1C.6,6.1,0,4.7,0,3C0,1.3,.6,-0,1.4,-0z">
</path>


            <path transform="matrix(0,-1,-1,0,70.3,42.7)" id="shape3" fill="url(#zg3_219)" d="M42.5,0C42.4,1.1,41.9,1.9,41.1,1.9L1.4,1.9C.6,1.9,.1,1,0,0C0,0,42.5,0,42.5,0z">
</path>


            <path transform="matrix(0,-1,-1,0,74.1,42.2)" id="shape4" fill="#ffffff" fill-opacity="0.32" d="M.7,0L40.8,0C41.2,0,41.5,.3,41.5,.6C41.5,.9,41.2,1.1,40.8,1.1L.7,1.1C.3,1.1,0,.9,0,.6C0,.3,.3,0,.7,0z">
</path>


        </g>


        <g transform="translate(77.55,0)">


            <path transform="matrix(0,-1,-1,0,68.3,40.7)" id="shape5" fill="url(#zg1_219)" d="M0,0L39.1,0L39.1,68.3L0,68.3L0,0z">
</path>


            <path transform="matrix(0,-1,-1,0,74.4,42.9)" id="shape6" fill="url(#zg2_219)" d="M1.4,-0L41.5,-0C42.2,-0,42.9,1.3,42.9,3C42.9,4.7,42.2,6.1,41.5,6.1L1.4,6.1C.6,6.1,0,4.7,0,3C0,1.3,.6,-0,1.4,-0z">
</path>


            <path transform="matrix(0,-1,-1,0,70.3,42.7)" id="shape7" fill="url(#zg3_219)" d="M42.5,0C42.4,1.1,41.9,1.9,41.1,1.9L1.4,1.9C.6,1.9,.1,1,0,0C0,0,42.5,0,42.5,0z">
</path>


            <path transform="matrix(0,-1,-1,0,74.1,42.2)" id="shape8" fill="#ffffff" fill-opacity="0.35" d="M.7,0L40.8,0C41.2,0,41.5,.3,41.5,.6C41.5,.9,41.2,1.1,40.8,1.1L.7,1.1C.3,1.1,0,.9,0,.6C0,.3,.3,0,.7,0z">
</path>


        </g>


        <g transform="translate(26.19,1.31)">


            <path transform="matrix(0,-1,-1,0,102.8,102.6)" id="shape9" fill="url(#qg1)" stroke="#d4d6db" stroke-width="0.25" d="M0,51.4C0,23,23,0,51.3,0C79.7,0,102.6,23,102.6,51.4C102.6,79.8,79.7,102.8,51.3,102.8C23,102.8,0,79.8,0,51.4z">
</path>


            <path transform="matrix(0,-1,-1,0,94.2,94)" id="shape10" fill="#ffffff" fill-opacity="0.27" d="M0,42.7C0,19.1,19.1,0,42.6,0C66.2,0,85.3,19.1,85.3,42.7C85.3,66.3,66.2,85.5,42.6,85.5C19.1,85.5,0,66.3,0,42.7z">
</path>


            <path transform="matrix(0,-1,-1,0,85.9,93.9)" id="shape11" fill="#ffffff" fill-opacity="0.13" d="M0,34.5C-0.3,13,17.1,0,17.1,0L73.1,63.9C73.1,63.9,62.3,77.3,42.6,77.3C19.1,77.3,0,58.1,0,34.5z">
</path>


        </g>


    </g>
  <defs
     id="defs4">
    <linearGradient
       id="linearGradient3159">
      <stop
         id="stop3163"
         style="stop-color:#000000;stop-opacity:0"
         offset="0" />
      <stop
         id="stop3161"
         style="stop-color:#000000;stop-opacity:0.5"
         offset="1" />
    </linearGradient>
    <linearGradient
       id="linearGradient3030">
      <stop
         id="stop3032"
         style="stop-color:#ffffff;stop-opacity:1"
         offset="0" />
      <stop
         id="stop3034"
         style="stop-color:#ffffff;stop-opacity:0"
         offset="1" />
    </linearGradient>
    <linearGradient
       x1="120"
       y1="10"
       x2="120"
       y2="50"
       id="linearGradient3113"
       xlink:href="#linearGradient3030"
       gradientUnits="userSpaceOnUse" />
    <radialGradient
       cx="120"
       cy="170"
       r="100"
       fx="120"
       fy="170"
       id="radialGradient3165"
       xlink:href="#linearGradient3159"
       gradientUnits="userSpaceOnUse"
       gradientTransform="matrix(0,-0.72727275,2,0,-220,170)" />
  </defs>
  <style type="text/css">
    rect[role="button"] { fill: red; }
    rect[aria-pressed="true"] { fill: green; }
    /* rect:hover { fill: blue; } */
  </style>

  <g id="layer1" transform="translate(0,360)"
     cursor="pointer"
     class="noselect"
     onkeydown="return buttonEvent(evt);"
     onclick="return buttonEvent(evt);">
    <rect
       role="button"
       aria-pressed="true"
       width="220"
       height="80"
       ry="40"
       x="10"
       y="10"
       id="ButtonBase"
       style="stroke:none" />
    <rect
       width="220"
       height="80"
       ry="40"
       x="10"
       y="10"
       id="ButtonGlow"
       pointer-events="none"
       style="fill:url(#radialGradient3165);stroke:none" />
    <text
       x="120"
       y="66"
       id="text3194"
       pointer-events="none"
       xml:space="preserve"
       style="font-size:40px;text-align:center;text-anchor:middle;fill:#000000;stroke:none;font-family:Sans">ON</text>
    <text
       x="120"
       y="64.5"
       id="text3198"
       pointer-events="none"
       xml:space="preserve"
       style="font-size:40px;text-align:center;text-anchor:middle;fill:#ffffff;stroke:none;font-family:Sans">ON</text>
    <path
       d="m 50,15 140,0 c 11.08,0 22.51667,10.914008 20,20 C 208.16563,41.622482 201.08,40 190,40 L 50.00005,40 C 38.92005,40 31.834332,41.622512 30,35 27.483323,25.914009 38.92,15 50,15 z"
       id="ButtonHighlight"
       pointer-events="none"
       style="fill:url(#linearGradient3113)" />
  </g>
</g>

</svg>