<svg xmlns="http://www.w3.org/2000/svg"><g stroke="black" stroke-width=".5" size="1" id="CircleStar6"><polygon fill="black"  points="0.5,-4.5697e-008 0.475527,-0.154509 0.40451,-0.293893 0.293893,-0.40451 0.154508,-0.47553 -4.5697e-008,-0.5 -0.154509,-0.47553 -0.293893,-0.40451 -0.40451,-0.293893 -0.47553,-0.154509 -0.5,-4.5697e-008 -0.47553,0.154508 -0.40451,0.293893 -0.293893,0.40451 -0.154509,0.475527 -4.5697e-008,0.5 0.154508,0.475527 0.293893,0.40451 0.40451,0.293893 0.475527,0.154508" /><polygon fill="white"  points="0.20773,0.119933 0.479733,-4.5697e-008 0.20773,-0.119933 0.239866,-0.41546 -4.5697e-008,-0.239866 -0.239866,-0.41546 -0.20773,-0.119933 -0.479733,-4.5697e-008 -0.20773,0.119933 -0.239866,0.41546 -4.5697e-008,0.239866 0.239866,0.41546" /></g></svg>