<svg xmlns="http://www.w3.org/2000/svg"><g stroke="black" stroke-width=".5" size="1" id="CircleEllipseVert"><polygon fill="black"  points="0.5,-9.23873e-008 0.475527,-0.154509 0.40451,-0.293893 0.293893,-0.40451 0.154508,-0.47553 -9.23873e-008,-0.5 -0.154509,-0.47553 -0.293893,-0.40451 -0.40451,-0.293893 -0.47553,-0.154509 -0.5,-9.23873e-008 -0.47553,0.154508 -0.40451,0.293893 -0.293893,0.40451 -0.154509,0.475527 -9.23873e-008,0.5 0.154508,0.475527 0.293893,0.40451 0.40451,0.293893 0.475527,0.154508" /><polygon fill="white"  points="0.1875,-9.23873e-008 0.178323,-0.115881 0.151691,-0.22042 0.11021,-0.303382 0.0579407,-0.356647 -9.23873e-008,-0.375 -0.0579407,-0.356647 -0.11021,-0.303382 -0.151691,-0.22042 -0.178323,-0.115881 -0.1875,-9.23873e-008 -0.178323,0.115881 -0.151691,0.220419 -0.11021,0.303381 -0.0579407,0.356647 -9.23873e-008,0.375 0.0579407,0.356647 0.11021,0.303381 0.151691,0.220419 0.178323,0.115881" /></g></svg>
