<svg xmlns="http://www.w3.org/2000/svg"><g stroke="black" stroke-width=".5" size="1" id="CirclePgon4vStar6"><polygon fill="black"  points="0.5,5.16573e-008 0.47553,-0.154508 0.40451,-0.293893 0.293893,-0.40451 0.154509,-0.475527 5.16573e-008,-0.5 -0.154508,-0.475527 -0.293893,-0.40451 -0.40451,-0.293893 -0.475527,-0.154508 -0.5,5.16573e-008 -0.475527,0.154509 -0.40451,0.293893 -0.293893,0.40451 -0.154508,0.47553 5.16573e-008,0.5 0.154509,0.47553 0.293893,0.40451 0.40451,0.293893 0.47553,0.154509" /><polygon fill="white"  points="0.442463,5.16573e-008 5.16573e-008,-0.442463 -0.442463,5.16573e-008 5.16573e-008,0.442463" /><polygon fill="black"  points="0.135476,0.0782173 0.312869,5.16573e-008 0.135476,-0.0782173 0.156435,-0.270952 5.16573e-008,-0.156434 -0.156434,-0.270952 -0.135476,-0.0782173 -0.312869,5.16573e-008 -0.135476,0.0782173 -0.156434,0.270952 5.16573e-008,0.156435 0.156435,0.270952" /></g></svg>