<svg xmlns="http://www.w3.org/2000/svg"><g stroke="black" stroke-width=".5" size="1" id="CircleEllipseHoriz"><polygon fill="black"  stroke-width=".1" points="0.5,5.16573e-008 0.47553,-0.154508 0.40451,-0.293893 0.293893,-0.40451 0.154509,-0.475527 5.16573e-008,-0.5 -0.154508,-0.475527 -0.293893,-0.40451 -0.40451,-0.293893 -0.475527,-0.154508 -0.5,5.16573e-008 -0.475527,0.154509 -0.40451,0.293893 -0.293893,0.40451 -0.154508,0.47553 5.16573e-008,0.5 0.154509,0.47553 0.293893,0.40451 0.40451,0.293893 0.47553,0.154509" /><polygon fill="white"  points="0.4,5.16573e-008 0.380423,-0.0618033 0.323607,-0.117557 0.235114,-0.161803 0.123607,-0.190211 5.16573e-008,-0.2 -0.123607,-0.190211 -0.235114,-0.161803 -0.323607,-0.117557 -0.380423,-0.0618033 -0.4,5.16573e-008 -0.380423,0.0618033 -0.323607,0.117557 -0.235114,0.161803 -0.123607,0.190211 5.16573e-008,0.2 0.123607,0.190211 0.235114,0.161803 0.323607,0.117557 0.380423,0.0618033" /></g></svg>