<svg xmlns="http://www.w3.org/2000/svg"><g stroke="black" stroke-width=".5" size="1" id="Pgon4CircleStar5"><polygon fill="black"  points="0.5,0.5 0.5,-0.5 -0.5,-0.5 -0.5,0.5" /><polygon fill="white"  points="0.383547,5.96047e-008 0.364777,-0.118523 0.310296,-0.225443 0.225443,-0.310296 0.118523,-0.364777 5.96047e-008,-0.383547 -0.118523,-0.364777 -0.225443,-0.310296 -0.310296,-0.225443 -0.364777,-0.118523 -0.383547,5.96047e-008 -0.364777,0.118523 -0.310296,0.225443 -0.225443,0.310296 -0.118523,0.364777 5.96047e-008,0.383547 0.118523,0.364777 0.225443,0.310296 0.310296,0.225443 0.364777,0.118523" /><polygon fill="black"  points="0.152169,0.0494427 0.304338,-0.0988853 0.0940457,-0.129443 5.96047e-008,-0.32 -0.0940457,-0.129443 -0.304338,-0.0988853 -0.152169,0.0494427 -0.188091,0.258886 5.96047e-008,0.16 0.188091,0.258886" /></g></svg>
