<svg xmlns="http://www.w3.org/2000/svg"><g stroke="black" stroke-width=".5" size="1" id="Star6Circle"><polygon fill="black"  points="0.216506,0.125 0.5,0 0.216506,-0.125 0.25,-0.433013 0,-0.25 -0.25,-0.433013 -0.216506,-0.125 -0.5,0 -0.216506,0.125 -0.25,0.433013 0,0.25 0.25,0.433013" /><polygon fill="white"  points="0.239717,0 0.227984,-0.0740767 0.193935,-0.140902 0.140902,-0.193935 0.0740767,-0.227984 0,-0.239717 -0.0740767,-0.227984 -0.140902,-0.193935 -0.193935,-0.140902 -0.227984,-0.0740767 -0.239717,0 -0.227984,0.0740767 -0.193935,0.140902 -0.140902,0.193935 -0.0740767,0.227984 0,0.239717 0.0740767,0.227984 0.140902,0.193935 0.193935,0.140902 0.227984,0.0740767" /></g></svg>
