<svg xmlns="http://www.w3.org/2000/svg"><g stroke="black" stroke-width=".5" size="1" id="Star15"><polygon fill="black"  points="0.102244,0.235138 0.295511,0.41223 0.18681,0.173697 0.435397,0.25687 0.239074,0.083173 0.5,0.0580453 0.25,-0.0207829 0.478147,-0.149866 0.217699,-0.120195 0.37362,-0.330915 0.147756,-0.197875 0.204488,-0.453797 0.0522643,-0.240391 -3.67563e-008,-0.49726 -0.0522643,-0.240391 -0.204489,-0.453797 -0.147756,-0.197875 -0.37362,-0.330915 -0.217699,-0.120195 -0.478147,-0.149866 -0.25,-0.0207829 -0.5,0.0580453 -0.239074,0.083173 -0.435397,0.25687 -0.18681,0.173697 -0.295512,0.41223 -0.102244,0.235138 -0.104528,0.49726 -3.67563e-008,0.25687 0.104528,0.49726" /></g></svg>

